# vtk DataFile Version 3.0
spinodal cantilever design
ASCII
DATASET STRUCTURED_POINTS
DIMENSIONS 17 9 9
ORIGIN 0 0 0
SPACING 1 1 1
CELL_DATA 1024
SCALARS V float 1
LOOKUP_TABLE default
0.27983
0.2317
0.19828
0.1774
0.16341
0.15362
0.14734
0.14264
0.13823
0.13315
0.12902
0.12605
0.12399
0.11881
0.13212
0.25872
0.28097
0.24501
0.2148
0.19376
0.17821
0.16674
0.15916
0.15352
0.1487
0.14485
0.14147
0.13925
0.13623
0.12246
0.11887
0.19002
0.28048
0.24103
0.2161
0.19886
0.18503
0.17409
0.16673
0.16066
0.15507
0.14948
0.14361
0.13771
0.13101
0.11637
0.11115
0.19568
0.27554
0.23775
0.21191
0.1953
0.18311
0.17401
0.16691
0.1607
0.15384
0.14608
0.13781
0.12995
0.12283
0.11111
0.11172
0.20063
0.27554
0.23775
0.21191
0.1953
0.18311
0.17401
0.16691
0.1607
0.15384
0.14608
0.13781
0.12995
0.12283
0.11111
0.11172
0.20063
0.28048
0.24103
0.2161
0.19886
0.18503
0.17409
0.16673
0.16066
0.15507
0.14948
0.14361
0.13771
0.13101
0.11637
0.11115
0.19568
0.28097
0.24501
0.2148
0.19376
0.17821
0.16674
0.15916
0.15352
0.1487
0.14485
0.14147
0.13925
0.13623
0.12246
0.11887
0.19002
0.27983
0.2317
0.19828
0.1774
0.16341
0.15362
0.14734
0.14264
0.13823
0.13315
0.12902
0.12605
0.12399
0.11881
0.13212
0.25872
0.086724
0.08443
0.09052
0.10075
0.10265
0.09768
0.091169
0.085345
0.080365
0.075771
0.071431
0.068479
0.067582
0.076894
0.11931
0.2037
0.083792
0.085702
0.095688
0.10796
0.10915
0.10256
0.094674
0.087876
0.082277
0.077526
0.073421
0.070341
0.067976
0.071997
0.098937
0.15921
0.083305
0.087029
0.1014
0.1153
0.11536
0.10743
0.098464
0.090604
0.083895
0.077712
0.07188
0.066941
0.063202
0.066039
0.090574
0.14745
0.083231
0.087855
0.10351
0.11738
0.11652
0.10801
0.098517
0.089969
0.082302
0.074878
0.067701
0.061743
0.05815
0.062273
0.090097
0.15233
0.083231
0.087855
0.10351
0.11738
0.11652
0.10801
0.098517
0.089969
0.082302
0.074878
0.067701
0.061743
0.05815
0.062273
0.090097
0.15233
0.083305
0.087029
0.1014
0.1153
0.11536
0.10743
0.098464
0.090604
0.083895
0.077712
0.07188
0.066941
0.063202
0.066039
0.090574
0.14745
0.083792
0.085702
0.095688
0.10796
0.10915
0.10256
0.094674
0.087876
0.082277
0.077526
0.073421
0.070341
0.067976
0.071997
0.098937
0.15921
0.086724
0.08443
0.09052
0.10075
0.10265
0.09768
0.091169
0.085345
0.080365
0.075771
0.071431
0.068479
0.067582
0.076894
0.11931
0.2037
0.013553
0.016167
0.03374
0.058473
0.078239
0.087324
0.0859
0.078908
0.071381
0.064521
0.057282
0.053779
0.065868
0.10589
0.16193
0.1446
0.012351
0.015517
0.035741
0.063332
0.084329
0.092596
0.08983
0.081355
0.072633
0.064975
0.056789
0.051714
0.061224
0.093824
0.1353
0.12171
0.012654
0.017829
0.042434
0.072742
0.093481
0.099654
0.094346
0.08329
0.072472
0.063091
0.053438
0.047031
0.054022
0.080787
0.11534
0.10619
0.012959
0.019331
0.046492
0.077777
0.097595
0.10202
0.094889
0.082058
0.0697
0.059135
0.048755
0.042254
0.048976
0.074902
0.11026
0.10472
0.012959
0.019331
0.046492
0.077777
0.097595
0.10202
0.094889
0.082058
0.0697
0.059135
0.048755
0.042254
0.048976
0.074902
0.11026
0.10472
0.012654
0.017829
0.042434
0.072742
0.093481
0.099654
0.094346
0.08329
0.072472
0.063091
0.053438
0.047031
0.054022
0.080787
0.11534
0.10619
0.012351
0.015517
0.035741
0.063332
0.084329
0.092596
0.08983
0.081355
0.072633
0.064975
0.056789
0.051714
0.061224
0.093824
0.1353
0.12171
0.013553
0.016167
0.03374
0.058473
0.078239
0.087324
0.0859
0.078908
0.071381
0.064521
0.057282
0.053779
0.065868
0.10589
0.16193
0.1446
1.7225e-05
0.0020678
0.013911
0.03717
0.063577
0.085395
0.091802
0.08625
0.079529
0.070697
0.063158
0.070392
0.10601
0.15434
0.14676
0.084195
0
0.0021643
0.015682
0.041155
0.069283
0.091759
0.09711
0.089728
0.081422
0.070745
0.060809
0.065353
0.096131
0.13644
0.12685
0.07186
7.6668e-05
0.0036794
0.021483
0.049983
0.078917
0.10029
0.10218
0.091015
0.079962
0.067318
0.05579
0.057598
0.081727
0.11275
0.10391
0.060479
0.0001339
0.0045686
0.025115
0.055231
0.084314
0.10435
0.10347
0.089541
0.076491
0.062763
0.050992
0.05206
0.07382
0.10264
0.095564
0.056639
0.0001339
0.0045686
0.025115
0.055231
0.084314
0.10435
0.10347
0.089541
0.076491
0.062763
0.050992
0.05206
0.07382
0.10264
0.095564
0.056639
7.6668e-05
0.0036794
0.021483
0.049983
0.078917
0.10029
0.10218
0.091015
0.079962
0.067318
0.05579
0.057598
0.081727
0.11275
0.10391
0.060479
0
0.0021643
0.015682
0.041155
0.069283
0.091759
0.09711
0.089728
0.081422
0.070745
0.060809
0.065353
0.096131
0.13644
0.12685
0.07186
1.7225e-05
0.0020678
0.013911
0.03717
0.063577
0.085395
0.091802
0.08625
0.079529
0.070697
0.063158
0.070392
0.10601
0.15434
0.14676
0.084195
0
0.0018776
0.012946
0.034393
0.056977
0.07339
0.083795
0.087357
0.085706
0.084509
0.092421
0.11886
0.15388
0.14895
0.086884
0.03567
0
0.002019
0.014837
0.038456
0.062339
0.078473
0.08782
0.089712
0.085753
0.081701
0.086194
0.1083
0.13804
0.13164
0.074554
0.028203
4.787e-05
0.003521
0.020834
0.047623
0.072085
0.086221
0.0921
0.090093
0.082627
0.075444
0.076004
0.091516
0.11261
0.10561
0.059732
0.021948
0.00011122
0.0044343
0.024629
0.053092
0.077564
0.089984
0.093199
0.088416
0.078809
0.070109
0.069072
0.081652
0.099534
0.093328
0.052906
0.019295
0.00011122
0.0044343
0.024629
0.053092
0.077564
0.089984
0.093199
0.088416
0.078809
0.070109
0.069072
0.081652
0.099534
0.093328
0.052906
0.019295
4.787e-05
0.003521
0.020834
0.047623
0.072085
0.086221
0.0921
0.090093
0.082627
0.075444
0.076004
0.091516
0.11261
0.10561
0.059732
0.021948
0
0.002019
0.014837
0.038456
0.062339
0.078473
0.08782
0.089712
0.085753
0.081701
0.086194
0.1083
0.13804
0.13164
0.074554
0.028203
0
0.0018776
0.012946
0.034393
0.056977
0.07339
0.083795
0.087357
0.085706
0.084509
0.092421
0.11886
0.15388
0.14895
0.086884
0.03567
0.013422
0.015333
0.030297
0.050516
0.064553
0.072638
0.085875
0.1007
0.11036
0.1233
0.14575
0.15963
0.14238
0.088309
0.034293
0.0088114
0.011969
0.014435
0.031985
0.054641
0.06895
0.075209
0.086944
0.099855
0.10612
0.11511
0.13324
0.14402
0.1266
0.076481
0.027863
0.0057776
0.011953
0.016387
0.038547
0.063764
0.076887
0.079867
0.088103
0.096543
0.097715
0.10119
0.112
0.11702
0.10088
0.060376
0.021243
0.0038222
0.012196
0.017813
0.042661
0.068757
0.080509
0.081233
0.087003
0.092514
0.090925
0.091708
0.099168
0.10204
0.087252
0.051959
0.017815
0.0029097
0.012196
0.017813
0.042661
0.068757
0.080509
0.081233
0.087003
0.092514
0.090925
0.091708
0.099168
0.10204
0.087252
0.051959
0.017815
0.0029097
0.011953
0.016387
0.038547
0.063764
0.076887
0.079867
0.088103
0.096543
0.097715
0.10119
0.112
0.11702
0.10088
0.060376
0.021243
0.0038222
0.011969
0.014435
0.031985
0.054641
0.06895
0.075209
0.086944
0.099855
0.10612
0.11511
0.13324
0.14402
0.1266
0.076481
0.027863
0.0057776
0.013422
0.015333
0.030297
0.050516
0.064553
0.072638
0.085875
0.1007
0.11036
0.1233
0.14575
0.15963
0.14238
0.088309
0.034293
0.0088114
0.086578
0.083993
0.087886
0.096658
0.1015
0.10619
0.11544
0.12891
0.14304
0.15347
0.15005
0.12229
0.074244
0.031283
0.007579
0.00080877
0.081947
0.083338
0.090747
0.10082
0.10455
0.10698
0.11339
0.1233
0.13303
0.13968
0.13481
0.10822
0.063574
0.025045
0.0052071
0.00038417
0.079634
0.082393
0.093345
0.10366
0.1047
0.10391
0.10674
0.11232
0.11686
0.11815
0.11037
0.086666
0.049825
0.018617
0.0033381
0.00023792
0.079007
0.082178
0.093637
0.10289
0.10172
0.09876
0.099577
0.10287
0.10491
0.10407
0.09576
0.07444
0.042178
0.015064
0.0023471
0.00014417
0.079007
0.082178
0.093637
0.10289
0.10172
0.09876
0.099577
0.10287
0.10491
0.10407
0.09576
0.07444
0.042178
0.015064
0.0023471
0.00014417
0.079634
0.082393
0.093345
0.10366
0.1047
0.10391
0.10674
0.11232
0.11686
0.11815
0.11037
0.086666
0.049825
0.018617
0.0033381
0.00023792
0.081947
0.083338
0.090747
0.10082
0.10455
0.10698
0.11339
0.1233
0.13303
0.13968
0.13481
0.10822
0.063574
0.025045
0.0052071
0.00038417
0.086578
0.083993
0.087886
0.096658
0.1015
0.10619
0.11544
0.12891
0.14304
0.15347
0.15005
0.12229
0.074244
0.031283
0.007579
0.00080877
0.28508
0.2427
0.2126
0.19714
0.18876
0.18394
0.18046
0.17433
0.16175
0.13723
0.10315
0.062509
0.027041
0.0070157
0.00072037
0
0.2768
0.24678
0.2224
0.20742
0.19723
0.18854
0.17977
0.16807
0.1512
0.12496
0.091818
0.053154
0.020472
0.0042773
0.00030502
0
0.26765
0.23431
0.21165
0.19779
0.18608
0.17522
0.16377
0.15008
0.13187
0.10685
0.077014
0.043138
0.015175
0.0025043
0.00016365
0
0.26123
0.22635
0.20109
0.1848
0.1717
0.16001
0.14838
0.13499
0.11735
0.094676
0.067833
0.037389
0.012415
0.0015872
6.2334e-05
0
0.26123
0.22635
0.20109
0.1848
0.1717
0.16001
0.14838
0.13499
0.11735
0.094676
0.067833
0.037389
0.012415
0.0015872
6.2334e-05
0
0.26765
0.23431
0.21165
0.19779
0.18608
0.17522
0.16377
0.15008
0.13187
0.10685
0.077014
0.043138
0.015175
0.0025043
0.00016365
0
0.2768
0.24678
0.2224
0.20742
0.19723
0.18854
0.17977
0.16807
0.1512
0.12496
0.091818
0.053154
0.020472
0.0042773
0.00030502
0
0.28508
0.2427
0.2126
0.19714
0.18876
0.18394
0.18046
0.17433
0.16175
0.13723
0.10315
0.062509
0.027041
0.0070157
0.00072037
0
SCALARS Frac float 1
LOOKUP_TABLE default
0.5672
0.51647
0.51266
0.50838
0.50955
0.51844
0.52935
0.53945
0.54757
0.54568
0.54206
0.5392
0.54735
0.53905
0.43478
0.56558
0.55959
0.52429
0.51885
0.51271
0.51356
0.52223
0.533
0.54284
0.55177
0.55613
0.55422
0.55271
0.56271
0.55797
0.45118
0.49381
0.56664
0.51692
0.51327
0.50988
0.5125
0.52194
0.5338
0.54369
0.55296
0.55673
0.55411
0.54917
0.5535
0.54994
0.45484
0.56539
0.56391
0.51741
0.50992
0.50483
0.5087
0.52068
0.53183
0.54201
0.55036
0.5523
0.54848
0.54367
0.54941
0.5469
0.453
0.56487
0.56391
0.51741
0.50992
0.50483
0.5087
0.52068
0.53183
0.54201
0.55036
0.5523
0.54848
0.54367
0.54941
0.5469
0.453
0.56487
0.56664
0.51692
0.51327
0.50988
0.5125
0.52194
0.5338
0.54369
0.55296
0.55673
0.55411
0.54917
0.5535
0.54994
0.45484
0.56539
0.55959
0.52429
0.51885
0.51271
0.51356
0.52223
0.533
0.54284
0.55177
0.55613
0.55422
0.55271
0.56271
0.55797
0.45118
0.49381
0.5672
0.51647
0.51266
0.50838
0.50955
0.51844
0.52935
0.53945
0.54757
0.54568
0.54206
0.5392
0.54735
0.53905
0.43478
0.56558
0.43624
0.45985
0.47687
0.48908
0.4884
0.48394
0.48278
0.48475
0.48382
0.47766
0.47753
0.48312
0.47621
0.45616
0.44327
0.52268
0.43268
0.46736
0.48268
0.49354
0.49154
0.48644
0.4849
0.48665
0.48559
0.47957
0.47976
0.48705
0.48179
0.46524
0.43571
0.48543
0.43588
0.4671
0.48581
0.49556
0.49086
0.4852
0.4839
0.48575
0.48458
0.47807
0.47747
0.48325
0.47857
0.46602
0.4456
0.50221
0.4366
0.46881
0.4879
0.49619
0.48979
0.4838
0.48215
0.4839
0.4827
0.47619
0.47568
0.48105
0.47743
0.465
0.44714
0.51157
0.4366
0.46881
0.4879
0.49619
0.48979
0.4838
0.48215
0.4839
0.4827
0.47619
0.47568
0.48105
0.47743
0.465
0.44714
0.51157
0.43588
0.4671
0.48581
0.49556
0.49086
0.4852
0.4839
0.48575
0.48458
0.47807
0.47747
0.48325
0.47857
0.46602
0.4456
0.50221
0.43268
0.46736
0.48268
0.49354
0.49154
0.48644
0.4849
0.48665
0.48559
0.47957
0.47976
0.48705
0.48179
0.46524
0.43571
0.48543
0.43624
0.45985
0.47687
0.48908
0.4884
0.48394
0.48278
0.48475
0.48382
0.47766
0.47753
0.48312
0.47621
0.45616
0.44327
0.52268
0.4945
0.49827
0.50201
0.50895
0.51347
0.51196
0.51037
0.51039
0.50817
0.50712
0.50876
0.49895
0.49009
0.5141
0.56643
0.47574
0.49782
0.50286
0.50683
0.51541
0.52064
0.5168
0.51393
0.5134
0.51092
0.51013
0.51236
0.50288
0.49377
0.50896
0.54282
0.46332
0.49784
0.50235
0.50922
0.51984
0.52589
0.52107
0.51741
0.5156
0.51165
0.50943
0.51014
0.50102
0.49313
0.50691
0.53806
0.46043
0.49724
0.50206
0.51059
0.5216
0.52709
0.52127
0.51704
0.51458
0.50971
0.50694
0.50726
0.49918
0.49231
0.50665
0.5407
0.46472
0.49724
0.50206
0.51059
0.5216
0.52709
0.52127
0.51704
0.51458
0.50971
0.50694
0.50726
0.49918
0.49231
0.50665
0.5407
0.46472
0.49784
0.50235
0.50922
0.51984
0.52589
0.52107
0.51741
0.5156
0.51165
0.50943
0.51014
0.50102
0.49313
0.50691
0.53806
0.46043
0.49782
0.50286
0.50683
0.51541
0.52064
0.5168
0.51393
0.5134
0.51092
0.51013
0.51236
0.50288
0.49377
0.50896
0.54282
0.46332
0.4945
0.49827
0.50201
0.50895
0.51347
0.51196
0.51037
0.51039
0.50817
0.50712
0.50876
0.49895
0.49009
0.5141
0.56643
0.47574
0.48812
0.49235
0.49202
0.49657
0.50788
0.52903
0.53075
0.51916
0.51829
0.51417
0.50016
0.48881
0.51269
0.5541
0.54598
0.43866
0.49112
0.49734
0.49605
0.5
0.51089
0.53228
0.53357
0.52177
0.52128
0.51741
0.5029
0.49084
0.50884
0.5396
0.53185
0.44116
0.49021
0.49636
0.49588
0.50237
0.51593
0.53837
0.53727
0.52259
0.52059
0.51576
0.50188
0.49152
0.50608
0.52894
0.52228
0.44641
0.48934
0.49566
0.49566
0.50363
0.51859
0.54093
0.53812
0.5216
0.51853
0.51314
0.50065
0.49165
0.50571
0.52906
0.52401
0.45036
0.48934
0.49566
0.49566
0.50363
0.51859
0.54093
0.53812
0.5216
0.51853
0.51314
0.50065
0.49165
0.50571
0.52906
0.52401
0.45036
0.49021
0.49636
0.49588
0.50237
0.51593
0.53837
0.53727
0.52259
0.52059
0.51576
0.50188
0.49152
0.50608
0.52894
0.52228
0.44641
0.49112
0.49734
0.49605
0.5
0.51089
0.53228
0.53357
0.52177
0.52128
0.51741
0.5029
0.49084
0.50884
0.5396
0.53185
0.44116
0.48812
0.49235
0.49202
0.49657
0.50788
0.52903
0.53075
0.51916
0.51829
0.51417
0.50016
0.48881
0.51269
0.5541
0.54598
0.43866
0.48821
0.49251
0.49244
0.49772
0.50962
0.5153
0.51963
0.51957
0.51446
0.509
0.50574
0.51994
0.54837
0.54607
0.50602
0.45123
0.4912
0.49747
0.49646
0.5014
0.51351
0.51913
0.52313
0.52299
0.51751
0.51092
0.50484
0.51457
0.53738
0.53375
0.50051
0.4568
0.49028
0.49643
0.49629
0.50416
0.51899
0.52407
0.52607
0.5238
0.51681
0.5099
0.50346
0.51006
0.5253
0.52023
0.49755
0.46285
0.48941
0.49575
0.49605
0.50533
0.52131
0.5256
0.5263
0.5228
0.51527
0.50855
0.50287
0.50863
0.52277
0.51838
0.49851
0.46588
0.48941
0.49575
0.49605
0.50533
0.52131
0.5256
0.5263
0.5228
0.51527
0.50855
0.50287
0.50863
0.52277
0.51838
0.49851
0.46588
0.49028
0.49643
0.49629
0.50416
0.51899
0.52407
0.52607
0.5238
0.51681
0.5099
0.50346
0.51006
0.5253
0.52023
0.49755
0.46285
0.4912
0.49747
0.49646
0.5014
0.51351
0.51913
0.52313
0.52299
0.51751
0.51092
0.50484
0.51457
0.53738
0.53375
0.50051
0.4568
0.48821
0.49251
0.49244
0.49772
0.50962
0.5153
0.51963
0.51957
0.51446
0.509
0.50574
0.51994
0.54837
0.54607
0.50602
0.45123
0.49459
0.49872
0.50193
0.50647
0.50543
0.4973
0.51111
0.53063
0.52992
0.5285
0.54565
0.55242
0.54283
0.51067
0.49112
0.4763
0.49807
0.5034
0.50703
0.51348
0.51323
0.50229
0.51421
0.53299
0.5293
0.52396
0.53677
0.54123
0.53242
0.50495
0.49074
0.47067
0.49808
0.50301
0.5099
0.51869
0.5188
0.50601
0.51684
0.53372
0.52738
0.5203
0.52842
0.52798
0.51943
0.50066
0.4924
0.46945
0.49732
0.50277
0.5116
0.52097
0.52063
0.50705
0.51702
0.53246
0.52514
0.51781
0.52489
0.52386
0.51624
0.50084
0.49404
0.46876
0.49732
0.50277
0.5116
0.52097
0.52063
0.50705
0.51702
0.53246
0.52514
0.51781
0.52489
0.52386
0.51624
0.50084
0.49404
0.46876
0.49808
0.50301
0.5099
0.51869
0.5188
0.50601
0.51684
0.53372
0.52738
0.5203
0.52842
0.52798
0.51943
0.50066
0.4924
0.46945
0.49807
0.5034
0.50703
0.51348
0.51323
0.50229
0.51421
0.53299
0.5293
0.52396
0.53677
0.54123
0.53242
0.50495
0.49074
0.47067
0.49459
0.49872
0.50193
0.50647
0.50543
0.4973
0.51111
0.53063
0.52992
0.5285
0.54565
0.55242
0.54283
0.51067
0.49112
0.4763
0.43465
0.45712
0.46908
0.4786
0.48205
0.48978
0.49979
0.51648
0.53554
0.54833
0.55061
0.53986
0.51332
0.4971
0.49883
0.46167
0.43135
0.46493
0.47512
0.48263
0.48517
0.49242
0.50015
0.51362
0.52826
0.53716
0.53854
0.53057
0.50895
0.49676
0.50026
0.46215
0.43446
0.4652
0.47888
0.48508
0.48451
0.49103
0.49835
0.51081
0.5222
0.52638
0.52556
0.51964
0.50507
0.49788
0.50152
0.46259
0.43475
0.46664
0.48125
0.48638
0.48391
0.48937
0.49606
0.50744
0.51678
0.51929
0.51953
0.51599
0.50469
0.49917
0.50233
0.46272
0.43475
0.46664
0.48125
0.48638
0.48391
0.48937
0.49606
0.50744
0.51678
0.51929
0.51953
0.51599
0.50469
0.49917
0.50233
0.46272
0.43446
0.4652
0.47888
0.48508
0.48451
0.49103
0.49835
0.51081
0.5222
0.52638
0.52556
0.51964
0.50507
0.49788
0.50152
0.46259
0.43135
0.46493
0.47512
0.48263
0.48517
0.49242
0.50015
0.51362
0.52826
0.53716
0.53854
0.53057
0.50895
0.49676
0.50026
0.46215
0.43465
0.45712
0.46908
0.4786
0.48205
0.48978
0.49979
0.51648
0.53554
0.54833
0.55061
0.53986
0.51332
0.4971
0.49883
0.46167
0.57171
0.52774
0.52445
0.52465
0.5267
0.53257
0.53858
0.54276
0.54284
0.52392
0.50237
0.48781
0.48389
0.48822
0.47266
0.46493
0.55504
0.52541
0.52498
0.52533
0.52858
0.53335
0.53675
0.53846
0.53829
0.51999
0.50001
0.48884
0.48719
0.49178
0.47283
0.46802
0.55549
0.5135
0.51078
0.51284
0.51609
0.52211
0.52676
0.53094
0.53128
0.51514
0.49888
0.4906
0.48997
0.4939
0.47313
0.46914
0.55318
0.51042
0.50479
0.5033
0.50577
0.51257
0.51923
0.52548
0.52537
0.51154
0.49875
0.49225
0.49177
0.49493
0.47292
0.46947
0.55318
0.51042
0.50479
0.5033
0.50577
0.51257
0.51923
0.52548
0.52537
0.51154
0.49875
0.49225
0.49177
0.49493
0.47292
0.46947
0.55549
0.5135
0.51078
0.51284
0.51609
0.52211
0.52676
0.53094
0.53128
0.51514
0.49888
0.4906
0.48997
0.4939
0.47313
0.46914
0.55504
0.52541
0.52498
0.52533
0.52858
0.53335
0.53675
0.53846
0.53829
0.51999
0.50001
0.48884
0.48719
0.49178
0.47283
0.46802
0.57171
0.52774
0.52445
0.52465
0.5267
0.53257
0.53858
0.54276
0.54284
0.52392
0.50237
0.48781
0.48389
0.48822
0.47266
0.46493
SCALARS rho_bar float 1
LOOKUP_TABLE default
0.49244
0.44734
0.38546
0.34756
0.31939
0.29527
0.27752
0.26372
0.25184
0.24345
0.23749
0.23325
0.22607
0.22011
0.30287
0.45634
0.50147
0.46626
0.41274
0.37653
0.34573
0.31828
0.29783
0.28216
0.26894
0.25997
0.25479
0.25145
0.24163
0.21919
0.2627
0.38335
0.49458
0.46523
0.41972
0.38853
0.35968
0.3325
0.31153
0.29482
0.27986
0.26797
0.25867
0.25025
0.23619
0.2113
0.24372
0.3456
0.48823
0.45849
0.41422
0.38524
0.35849
0.33306
0.31293
0.29572
0.27886
0.2639
0.2507
0.23848
0.2231
0.20287
0.24593
0.35446
0.48823
0.45849
0.41422
0.38524
0.35849
0.33306
0.31293
0.29572
0.27886
0.2639
0.2507
0.23848
0.2231
0.20287
0.24593
0.35446
0.49458
0.46523
0.41972
0.38853
0.35968
0.3325
0.31153
0.29482
0.27986
0.26797
0.25867
0.25025
0.23619
0.2113
0.24372
0.3456
0.50147
0.46626
0.41274
0.37653
0.34573
0.31828
0.29783
0.28216
0.26894
0.25997
0.25479
0.25145
0.24163
0.21919
0.2627
0.38335
0.49244
0.44734
0.38546
0.34756
0.31939
0.29527
0.27752
0.26372
0.25184
0.24345
0.23749
0.23325
0.22607
0.22011
0.30287
0.45634
0.19781
0.18287
0.1893
0.20559
0.20965
0.20122
0.18824
0.17553
0.16563
0.1582
0.14922
0.14147
0.14163
0.16819
0.26871
0.38858
0.19274
0.18266
0.19772
0.21838
0.22155
0.2102
0.19463
0.18004
0.16897
0.16124
0.15268
0.14417
0.14083
0.15445
0.22671
0.32707
0.19025
0.1856
0.20827
0.23232
0.23445
0.22071
0.20282
0.18596
0.17264
0.16211
0.15017
0.13825
0.1318
0.14142
0.20296
0.29303
0.18977
0.1867
0.21173
0.23623
0.23728
0.2225
0.20364
0.18534
0.17
0.1568
0.14196
0.12808
0.12155
0.13364
0.20114
0.29704
0.18977
0.1867
0.21173
0.23623
0.23728
0.2225
0.20364
0.18534
0.17
0.1568
0.14196
0.12808
0.12155
0.13364
0.20114
0.29704
0.19025
0.1856
0.20827
0.23232
0.23445
0.22071
0.20282
0.18596
0.17264
0.16211
0.15017
0.13825
0.1318
0.14142
0.20296
0.29303
0.19274
0.18266
0.19772
0.21838
0.22155
0.2102
0.19463
0.18004
0.16897
0.16124
0.15268
0.14417
0.14083
0.15445
0.22671
0.32707
0.19781
0.18287
0.1893
0.20559
0.20965
0.20122
0.18824
0.17553
0.16563
0.1582
0.14922
0.14147
0.14163
0.16819
0.26871
0.38858
0.027388
0.03242
0.067124
0.11476
0.15223
0.17037
0.1681
0.15443
0.14031
0.12709
0.11249
0.10766
0.13418
0.20567
0.28581
0.30272
0.024794
0.030834
0.07043
0.12276
0.16186
0.179
0.17461
0.15832
0.14203
0.12726
0.11076
0.10274
0.12382
0.18412
0.24924
0.26172
0.025402
0.03546
0.083229
0.13984
0.17766
0.19108
0.18218
0.16142
0.14153
0.12374
0.10467
0.093773
0.1094
0.15918
0.21435
0.22987
0.026044
0.038466
0.090949
0.14903
0.18504
0.19551
0.18334
0.15932
0.13661
0.11653
0.096027
0.084553
0.099344
0.14765
0.20385
0.22457
0.026044
0.038466
0.090949
0.14903
0.18504
0.19551
0.18334
0.15932
0.13661
0.11653
0.096027
0.084553
0.099344
0.14765
0.20385
0.22457
0.025402
0.03546
0.083229
0.13984
0.17766
0.19108
0.18218
0.16142
0.14153
0.12374
0.10467
0.093773
0.1094
0.15918
0.21435
0.22987
0.024794
0.030834
0.07043
0.12276
0.16186
0.179
0.17461
0.15832
0.14203
0.12726
0.11076
0.10274
0.12382
0.18412
0.24924
0.26172
0.027388
0.03242
0.067124
0.11476
0.15223
0.17037
0.1681
0.15443
0.14031
0.12709
0.11249
0.10766
0.13418
0.20567
0.28581
0.30272
3.5288e-05
0.0041993
0.028254
0.074738
0.12495
0.16123
0.17278
0.16592
0.15327
0.13735
0.12608
0.14369
0.20637
0.27825
0.26831
0.19112
0
0.0043512
0.031588
0.082177
0.13536
0.1722
0.18183
0.17178
0.15605
0.13661
0.12076
0.13289
0.18859
0.2526
0.23813
0.16229
0.0001564
0.0074115
0.043279
0.099316
0.15269
0.18613
0.19004
0.17397
0.15345
0.1304
0.11102
0.11697
0.16122
0.21291
0.19864
0.13505
0.00027362
0.0092149
0.050611
0.10946
0.1623
0.19274
0.19212
0.17145
0.14734
0.12217
0.10171
0.10571
0.14573
0.19376
0.18207
0.12539
0.00027362
0.0092149
0.050611
0.10946
0.1623
0.19274
0.19212
0.17145
0.14734
0.12217
0.10171
0.10571
0.14573
0.19376
0.18207
0.12539
0.0001564
0.0074115
0.043279
0.099316
0.15269
0.18613
0.19004
0.17397
0.15345
0.1304
0.11102
0.11697
0.16122
0.21291
0.19864
0.13505
0
0.0043512
0.031588
0.082177
0.13536
0.1722
0.18183
0.17178
0.15605
0.13661
0.12076
0.13289
0.18859
0.2526
0.23813
0.16229
3.5288e-05
0.0041993
0.028254
0.074738
0.12495
0.16123
0.17278
0.16592
0.15327
0.13735
0.12608
0.14369
0.20637
0.27825
0.26831
0.19112
0
0.003812
0.026273
0.069008
0.11164
0.14224
0.16109
0.16794
0.16637
0.16575
0.18234
0.22824
0.28038
0.27226
0.17122
0.078883
0
0.0040581
0.029863
0.076586
0.12122
0.15099
0.16773
0.17139
0.16553
0.15969
0.17039
0.21014
0.25667
0.24619
0.14858
0.061638
9.7637e-05
0.0070913
0.041939
0.094309
0.13871
0.16437
0.17495
0.17185
0.1597
0.14776
0.15068
0.17913
0.21413
0.2026
0.11979
0.047359
0.00022726
0.0089425
0.049596
0.10489
0.1486
0.17104
0.17693
0.16894
0.15274
0.13765
0.1371
0.16027
0.19017
0.17969
0.10591
0.041371
0.00022726
0.0089425
0.049596
0.10489
0.1486
0.17104
0.17693
0.16894
0.15274
0.13765
0.1371
0.16027
0.19017
0.17969
0.10591
0.041371
9.7637e-05
0.0070913
0.041939
0.094309
0.13871
0.16437
0.17495
0.17185
0.1597
0.14776
0.15068
0.17913
0.21413
0.2026
0.11979
0.047359
0
0.0040581
0.029863
0.076586
0.12122
0.15099
0.16773
0.17139
0.16553
0.15969
0.17039
0.21014
0.25667
0.24619
0.14858
0.061638
0
0.003812
0.026273
0.069008
0.11164
0.14224
0.16109
0.16794
0.16637
0.16575
0.18234
0.22824
0.28038
0.27226
0.17122
0.078883
0.027117
0.03072
0.06029
0.09963
0.12756
0.14582
0.16785
0.18974
0.20813
0.23297
0.26675
0.28868
0.26182
0.17243
0.069708
0.01849
0.024016
0.028654
0.063012
0.10632
0.13422
0.14952
0.16895
0.18736
0.20039
0.21938
0.24785
0.26579
0.23733
0.15106
0.056697
0.012271
0.023983
0.032551
0.075516
0.12287
0.1481
0.15763
0.17035
0.1809
0.18518
0.19421
0.21162
0.22129
0.1938
0.12031
0.043095
0.00814
0.024507
0.0354
0.083306
0.13193
0.15453
0.15999
0.16815
0.17371
0.173
0.17682
0.18861
0.19448
0.16868
0.10352
0.036027
0.0062061
0.024507
0.0354
0.083306
0.13193
0.15453
0.15999
0.16815
0.17371
0.173
0.17682
0.18861
0.19448
0.16868
0.10352
0.036027
0.0062061
0.023983
0.032551
0.075516
0.12287
0.1481
0.15763
0.17035
0.1809
0.18518
0.19421
0.21162
0.22129
0.1938
0.12031
0.043095
0.00814
0.024016
0.028654
0.063012
0.10632
0.13422
0.14952
0.16895
0.18736
0.20039
0.21938
0.24785
0.26579
0.23733
0.15106
0.056697
0.012271
0.027117
0.03072
0.06029
0.09963
0.12756
0.14582
0.16785
0.18974
0.20813
0.23297
0.26675
0.28868
0.26182
0.17243
0.069708
0.01849
0.19819
0.18298
0.18672
0.20138
0.20996
0.21627
0.23049
0.2492
0.26684
0.27974
0.27233
0.22619
0.14431
0.062836
0.015187
0.0017517
0.18907
0.17853
0.19037
0.20832
0.2149
0.21673
0.22623
0.23966
0.25153
0.25982
0.25008
0.20365
0.12465
0.050354
0.010406
0.00083126
0.18246
0.17643
0.19438
0.21319
0.21549
0.21108
0.2137
0.21949
0.22347
0.22417
0.20971
0.16649
0.098466
0.037357
0.0066548
0.00051431
0.18091
0.17544
0.19411
0.21109
0.20961
0.20128
0.20026
0.20233
0.20266
0.2001
0.18403
0.14402
0.083436
0.030154
0.0046717
0.00031157
0.18091
0.17544
0.19411
0.21109
0.20961
0.20128
0.20026
0.20233
0.20266
0.2001
0.18403
0.14402
0.083436
0.030154
0.0046717
0.00031157
0.18246
0.17643
0.19438
0.21319
0.21549
0.21108
0.2137
0.21949
0.22347
0.22417
0.20971
0.16649
0.098466
0.037357
0.0066548
0.00051431
0.18907
0.17853
0.19037
0.20832
0.2149
0.21673
0.22623
0.23966
0.25153
0.25982
0.25008
0.20365
0.12465
0.050354
0.010406
0.00083126
0.19819
0.18298
0.18672
0.20138
0.20996
0.21627
0.23049
0.2492
0.26684
0.27974
0.27233
0.22619
0.14431
0.062836
0.015187
0.0017517
0.49811
0.45903
0.4045
0.3748
0.35744
0.3445
0.3342
0.32037
0.29717
0.26118
0.2047
0.12781
0.055805
0.014364
0.001524
0
0.49812
0.46879
0.42263
0.39378
0.37213
0.35259
0.33402
0.31126
0.28006
0.23958
0.18308
0.10849
0.041975
0.0086955
0.00064508
0
0.48107
0.45503
0.41296
0.38419
0.3592
0.3344
0.30982
0.28172
0.24744
0.20679
0.15394
0.087757
0.030947
0.0050697
0.00034588
0
0.47126
0.44204
0.39677
0.36549
0.33795
0.31085
0.28463
0.25596
0.22263
0.18451
0.13565
0.075825
0.02523
0.0032067
0.00013181
0
0.47126
0.44204
0.39677
0.36549
0.33795
0.31085
0.28463
0.25596
0.22263
0.18451
0.13565
0.075825
0.02523
0.0032067
0.00013181
0
0.48107
0.45503
0.41296
0.38419
0.3592
0.3344
0.30982
0.28172
0.24744
0.20679
0.15394
0.087757
0.030947
0.0050697
0.00034588
0
0.49812
0.46879
0.42263
0.39378
0.37213
0.35259
0.33402
0.31126
0.28006
0.23958
0.18308
0.10849
0.041975
0.0086955
0.00064508
0
0.49811
0.45903
0.4045
0.3748
0.35744
0.3445
0.3342
0.32037
0.29717
0.26118
0.2047
0.12781
0.055805
0.014364
0.001524
0
VECTORS stiff_axis float
0.18541 -0.97063 0.15326
-0.31921 -0.94206 0.10309
0.4532 -0.88635 0.09482
-0.10734 -0.99079 0.082495
-0.12915 -0.98948 0.065199
-0.0826 -0.99492 0.057491
-0.043421 -0.99745 0.05666
-0.022479 -0.99794 0.060108
-0.083506 -0.99465 0.060756
0.14689 -0.98714 0.063104
0.041541 -0.99693 0.066318
0.28072 -0.95766 0.063943
-0.22342 -0.9726 0.064347
-0.090987 -0.99564 0.020777
-0.0083619 0.99535 0.095974
-0.091864 0.088919 0.99179
0.061585 -0.97826 0.19801
-0.65006 -0.75155 0.11228
0.51852 -0.84994 0.093509
0.063261 -0.99505 0.076655
-0.098908 -0.99297 0.06497
-0.12038 -0.99106 0.057557
0.30705 -0.94994 0.0577
0.067571 -0.99581 0.061562
0.048604 -0.99697 0.060795
0.43999 -0.89583 0.062393
-0.32327 -0.94413 0.064201
-0.32485 -0.9438 0.06098
-0.25883 -0.96401 0.060714
-0.18976 -0.9815 0.025269
0.2329 0.97199 0.031626
0.11915 0.057787 0.99119
0.2342 -0.95112 0.20132
0.51679 -0.84765 0.12002
0.53527 -0.8392 0.096084
0.53739 -0.84001 0.074868
0.08551 -0.99434 0.062996
-0.0074455 -0.99832 0.057524
0.5466 -0.8353 0.059257
-0.20305 -0.97729 0.060704
-0.35183 -0.93417 0.059539
-0.0025631 -0.99823 0.059375
-0.32863 -0.94269 0.05785
-0.27547 -0.95955 0.058155
-0.22618 -0.97239 0.057382
-0.16958 -0.98524 0.023448
0.12156 0.99029 0.067453
0.040827 0.13366 0.99019
0.2553 -0.94578 0.20082
0.52586 -0.8416 0.12321
0.55519 -0.82578 0.099314
0.53276 -0.84272 0.077381
0.51584 -0.85434 0.063308
0.56403 -0.82373 0.057865
0.38312 -0.922 0.056013
-0.38285 -0.92211 0.056012
-0.45106 -0.89048 0.059954
-0.33596 -0.93996 0.060026
-0.32559 -0.94363 0.059511
-0.30394 -0.95096 0.057356
-0.2573 -0.9647 0.056119
-0.26159 -0.96499 0.019207
0.15916 0.98562 0.056696
0.0083784 0.13422 0.99092
-0.2553 -0.94578 0.20082
-0.52586 -0.8416 0.12321
-0.55519 -0.82578 0.099314
-0.53276 -0.84272 0.077381
-0.51584 -0.85434 0.063308
-0.56403 -0.82373 0.057865
-0.38312 -0.922 0.056013
0.38285 -0.92211 0.056012
0.45106 -0.89048 0.059954
0.33596 -0.93996 0.060026
0.32559 -0.94363 0.059511
0.30394 -0.95096 0.057356
0.2573 -0.9647 0.056119
0.26159 -0.96499 0.019207
-0.15916 0.98562 0.056696
-0.0083784 0.13422 0.99092
-0.2342 -0.95112 0.20132
-0.51679 -0.84765 0.12002
-0.53527 -0.8392 0.096084
-0.53739 -0.84001 0.074868
-0.08551 -0.99434 0.062996
0.0074455 -0.99832 0.057524
-0.5466 -0.8353 0.059257
0.20305 -0.97729 0.060704
0.35183 -0.93417 0.059539
0.0025631 -0.99823 0.059375
0.32863 -0.94269 0.05785
0.27547 -0.95955 0.058155
0.22618 -0.97239 0.057382
0.16958 -0.98524 0.023448
-0.12156 0.99029 0.067453
-0.040827 0.13366 0.99019
-0.061585 -0.97826 0.19801
0.65006 -0.75155 0.11228
-0.51852 -0.84994 0.093509
-0.063261 -0.99505 0.076655
0.098908 -0.99297 0.06497
0.12038 -0.99106 0.057557
-0.30705 -0.94994 0.0577
-0.067571 -0.99581 0.061562
-0.048604 -0.99697 0.060795
-0.43999 -0.89583 0.062393
0.32327 -0.94413 0.064201
0.32485 -0.9438 0.06098
0.25883 -0.96401 0.060714
0.18976 -0.9815 0.025269
-0.2329 0.97199 0.031626
-0.11915 0.057787 0.99119
-0.18541 -0.97063 0.15326
0.31921 -0.94206 0.10309
-0.4532 -0.88635 0.09482
0.10734 -0.99079 0.082495
0.12915 -0.98948 0.065199
0.0826 -0.99492 0.057491
0.043421 -0.99745 0.05666
0.022479 -0.99794 0.060108
0.083506 -0.99465 0.060756
-0.14689 -0.98714 0.063104
-0.041541 -0.99693 0.066318
-0.28072 -0.95766 0.063943
0.22342 -0.9726 0.064347
0.090987 -0.99564 0.020777
0.0083619 0.99535 0.095974
0.091864 0.088919 0.99179
0.023623 -0.90165 0.43183
0.17627 -0.83855 0.51552
0.017503 -0.90698 0.42081
0.046022 -0.92779 0.37025
-0.0077062 -0.94108 0.33809
0.0073546 -0.94637 0.323
0.018133 -0.94537 0.32549
0.021663 -0.94208 0.33469
0.063297 -0.93688 0.34387
0.13387 -0.92609 0.35276
-0.11602 -0.92697 0.35673
0.053071 -0.92972 0.36441
-0.026443 -0.93751 0.34694
-0.026488 -0.88903 0.45708
0.0047472 0.62946 0.77702
-0.030307 0.32624 0.9448
0.003269 -0.83335 0.55274
0.1192 -0.83222 0.54147
0.16061 -0.89224 0.42203
0.15919 -0.91711 0.36548
-0.034707 -0.93982 0.33992
-0.10906 -0.93821 0.32843
-0.11821 -0.93679 0.32931
-0.13155 -0.93303 0.33489
-0.16396 -0.92537 0.34177
-0.15076 -0.92545 0.34757
-0.076551 -0.93396 0.34909
-0.04476 -0.93394 0.35462
-0.0092645 -0.94193 0.33569
0.019898 -0.90255 0.43012
0.11009 0.58881 0.80074
0.094404 0.29249 0.9516
0.0008005 -0.81007 0.58633
0.07646 -0.82194 0.56441
0.21246 -0.87518 0.43464
0.062941 -0.92585 0.37262
-0.16618 -0.92534 0.34078
0.056784 -0.94145 0.33233
0.008734 -0.94359 0.33099
-0.081585 -0.9392 0.33354
-0.11313 -0.93455 0.33736
-0.027145 -0.94003 0.34
0.0097278 -0.94048 0.3397
-0.015449 -0.93876 0.34421
0.0028431 -0.94658 0.32246
0.024875 -0.90824 0.41771
0.12315 0.59377 0.79516
0.15149 0.2864 0.94606
-0.0097764 -0.80234 0.59678
0.041813 -0.81789 0.57385
0.12845 -0.8852 0.44713
-0.022225 -0.9249 0.37955
-0.10065 -0.93402 0.34276
0.29442 -0.89828 0.32619
0.11251 -0.93955 0.32338
0.04688 -0.9428 0.33005
0.033931 -0.94086 0.3371
0.037451 -0.93999 0.33913
0.012043 -0.94145 0.33695
-0.044146 -0.93994 0.33847
-0.0065572 -0.94919 0.31465
0.0060914 -0.90758 0.41984
0.054595 0.60485 0.79447
0.11966 0.29358 0.94841
0.0097764 -0.80234 0.59678
-0.041813 -0.81789 0.57385
-0.12845 -0.8852 0.44713
0.022225 -0.9249 0.37955
0.10065 -0.93402 0.34276
-0.29442 -0.89828 0.32619
-0.11251 -0.93955 0.32338
-0.04688 -0.9428 0.33005
-0.033931 -0.94086 0.3371
-0.037451 -0.93999 0.33913
-0.012043 -0.94145 0.33695
0.044146 -0.93994 0.33847
0.0065572 -0.94919 0.31465
-0.0060914 -0.90758 0.41984
-0.054595 0.60485 0.79447
-0.11966 0.29358 0.94841
-0.0008005 -0.81007 0.58633
-0.07646 -0.82194 0.56441
-0.21246 -0.87518 0.43464
-0.062941 -0.92585 0.37262
0.16618 -0.92534 0.34078
-0.056784 -0.94145 0.33233
-0.008734 -0.94359 0.33099
0.081585 -0.9392 0.33354
0.11313 -0.93455 0.33736
0.027145 -0.94003 0.34
-0.0097278 -0.94048 0.3397
0.015449 -0.93876 0.34421
-0.0028431 -0.94658 0.32246
-0.024875 -0.90824 0.41771
-0.12315 0.59377 0.79516
-0.15149 0.2864 0.94606
-0.003269 -0.83335 0.55274
-0.1192 -0.83222 0.54147
-0.16061 -0.89224 0.42203
-0.15919 -0.91711 0.36548
0.034707 -0.93982 0.33992
0.10906 -0.93821 0.32843
0.11821 -0.93679 0.32931
0.13155 -0.93303 0.33489
0.16396 -0.92537 0.34177
0.15076 -0.92545 0.34757
0.076551 -0.93396 0.34909
0.04476 -0.93394 0.35462
0.0092645 -0.94193 0.33569
-0.019898 -0.90255 0.43012
-0.11009 0.58881 0.80074
-0.094404 0.29249 0.9516
-0.023623 -0.90165 0.43183
-0.17627 -0.83855 0.51552
-0.017503 -0.90698 0.42081
-0.046022 -0.92779 0.37025
0.0077062 -0.94108 0.33809
-0.0073546 -0.94637 0.323
-0.018133 -0.94537 0.32549
-0.021663 -0.94208 0.33469
-0.063297 -0.93688 0.34387
-0.13387 -0.92609 0.35276
0.11602 -0.92697 0.35673
-0.053071 -0.92972 0.36441
0.026443 -0.93751 0.34694
0.026488 -0.88903 0.45708
-0.0047472 0.62946 0.77702
0.030307 0.32624 0.9448
-0.13416 -0.64224 0.75467
-0.036674 -0.68007 0.73223
-0.018527 -0.75475 0.65575
0.020463 -0.80252 0.59628
0.028207 -0.82337 0.56681
0.026527 -0.82699 0.56159
0.026349 -0.82704 0.56152
0.027325 -0.82093 0.57037
0.032274 -0.81743 0.57512
0.031766 -0.81603 0.57714
0.040258 -0.81307 0.58077
0.063652 -0.81569 0.57498
0.047668 -0.7959 0.60355
0.037805 0.65319 0.75625
-0.052507 0.60689 0.79305
-0.11161 0.34903 0.93044
-0.091043 -0.61376 0.78422
-0.06253 -0.67652 0.73377
-0.04355 -0.75234 0.65733
0.038372 -0.80035 0.59831
0.041369 -0.8202 0.57058
0.034053 -0.82405 0.56549
0.027984 -0.82535 0.56392
0.02504 -0.82059 0.57097
0.035579 -0.81753 0.57479
0.033061 -0.81705 0.57561
0.021289 -0.81652 0.57692
0.032895 -0.82246 0.56787
0.039995 -0.80571 0.59096
0.05367 0.64026 0.76628
0.049521 0.60104 0.79769
-0.13229 0.33255 0.93376
-0.049937 -0.60759 0.79268
-0.034191 -0.66839 0.74303
-0.024412 -0.74847 0.66272
-0.027532 -0.79944 0.60011
0.041032 -0.82011 0.57073
-0.0018275 -0.82502 0.5651
-0.0020436 -0.82642 0.56306
0.02839 -0.8214 0.56965
0.0035944 -0.81997 0.57239
0.0098626 -0.82004 0.57222
0.024994 -0.81989 0.57198
0.021953 -0.82735 0.56126
0.042664 -0.81105 0.58342
0.056129 0.63504 0.77044
0.072497 0.60118 0.79582
0.074058 0.35142 0.93329
-0.017423 -0.60315 0.79744
0.012702 -0.66378 0.74782
-0.034522 -0.74449 0.66674
-0.016513 -0.79878 0.60139
0.013266 -0.8221 0.56918
0.0025555 -0.8268 0.56249
-0.002806 -0.82825 0.56036
0.013105 -0.82296 0.56795
0.019765 -0.82046 0.57136
0.02459 -0.82074 0.57078
0.032991 -0.82108 0.56986
0.014879 -0.83011 0.55741
0.040152 -0.81293 0.58098
0.026701 0.63681 0.77055
0.028343 0.60661 0.79449
0.074256 0.34885 0.93423
0.017423 -0.60315 0.79744
-0.012702 -0.66378 0.74782
0.034522 -0.74449 0.66674
0.016513 -0.79878 0.60139
-0.013266 -0.8221 0.56918
-0.0025555 -0.8268 0.56249
0.002806 -0.82825 0.56036
-0.013105 -0.82296 0.56795
-0.019765 -0.82046 0.57136
-0.02459 -0.82074 0.57078
-0.032991 -0.82108 0.56986
-0.014879 -0.83011 0.55741
-0.040152 -0.81293 0.58098
-0.026701 0.63681 0.77055
-0.028343 0.60661 0.79449
-0.074256 0.34885 0.93423
0.049937 -0.60759 0.79268
0.034191 -0.66839 0.74303
0.024412 -0.74847 0.66272
0.027532 -0.79944 0.60011
-0.041032 -0.82011 0.57073
0.0018275 -0.82502 0.5651
0.0020436 -0.82642 0.56306
-0.02839 -0.8214 0.56965
-0.0035944 -0.81997 0.57239
-0.0098626 -0.82004 0.57222
-0.024994 -0.81989 0.57198
-0.021953 -0.82735 0.56126
-0.042664 -0.81105 0.58342
-0.056129 0.63504 0.77044
-0.072497 0.60118 0.79582
-0.074058 0.35142 0.93329
0.091043 -0.61376 0.78422
0.06253 -0.67652 0.73377
0.04355 -0.75234 0.65733
-0.038372 -0.80035 0.59831
-0.041369 -0.8202 0.57058
-0.034053 -0.82405 0.56549
-0.027984 -0.82535 0.56392
-0.02504 -0.82059 0.57097
-0.035579 -0.81753 0.57479
-0.033061 -0.81705 0.57561
-0.021289 -0.81652 0.57692
-0.032895 -0.82246 0.56787
-0.039995 -0.80571 0.59096
-0.05367 0.64026 0.76628
-0.049521 0.60104 0.79769
0.13229 0.33255 0.93376
0.13416 -0.64224 0.75467
0.036674 -0.68007 0.73223
0.018527 -0.75475 0.65575
-0.020463 -0.80252 0.59628
-0.028207 -0.82337 0.56681
-0.026527 -0.82699 0.56159
-0.026349 -0.82704 0.56152
-0.027325 -0.82093 0.57037
-0.032274 -0.81743 0.57512
-0.031766 -0.81603 0.57714
-0.040258 -0.81307 0.58077
-0.063652 -0.81569 0.57498
-0.047668 -0.7959 0.60355
-0.037805 0.65319 0.75625
0.052507 0.60689 0.79305
0.11161 0.34903 0.93044
-0.028967 -0.68329 0.72957
-0.01395 -0.72337 0.69032
-0.0026056 -0.75412 0.65673
0.0018232 -0.77672 0.62985
-0.0023926 -0.79149 0.61118
-0.0060351 -0.78847 0.61504
-0.0053118 -0.75349 0.65744
0.0034187 -0.75444 0.65636
0.0017524 -0.75593 0.65465
-0.0052797 -0.7429 0.66938
0.013401 -0.73456 0.67841
0.021725 -0.71629 0.69746
0.038641 0.71211 0.701
-0.035153 0.6899 0.72305
-0.071724 0.60159 0.79558
0.055545 0.40345 0.91332
-0.020982 -0.67956 0.73332
-0.0051238 -0.72465 0.6891
-0.012379 -0.75292 0.658
-0.0026967 -0.77519 0.63172
-0.007327 -0.78948 0.61374
-0.0077577 -0.78662 0.61739
-0.0059163 -0.75202 0.65911
0.0012792 -0.75388 0.65701
0.01064 -0.75622 0.65423
0.022231 -0.74504 0.66665
0.023903 -0.74002 0.67216
0.043705 -0.72555 0.68678
0.045636 0.7028 0.70992
-0.0070488 0.6848 0.7287
-0.10532 0.59205 0.79899
-0.12342 0.37322 0.9195
-0.016001 -0.68045 0.73262
-0.0036093 -0.72312 0.69071
-0.011014 -0.75238 0.65863
-0.0070917 -0.77519 0.63169
-0.0022993 -0.78986 0.61328
-0.0040568 -0.78741 0.61642
-0.00068244 -0.7534 0.65756
0.003152 -0.75594 0.65464
0.013184 -0.75916 0.65077
0.021881 -0.74896 0.66226
0.027766 -0.74461 0.66693
0.031479 -0.73237 0.68018
0.037032 0.69805 0.7151
0.043818 0.68075 0.73121
0.054573 0.59849 0.79927
-0.062206 0.38734 0.91984
-0.005398 -0.68047 0.73276
-0.0060486 -0.72084 0.69308
-0.0053854 -0.75173 0.65945
-0.0012062 -0.77556 0.63127
-0.0025728 -0.79039 0.61259
-0.0004797 -0.78822 0.61539
0.00075644 -0.75462 0.65617
-0.001992 -0.75706 0.65334
0.0016582 -0.76035 0.64951
0.0092265 -0.75037 0.66095
0.0099893 -0.74601 0.66586
0.0094407 -0.73449 0.67855
0.012255 0.69679 0.71717
0.021207 0.68038 0.73255
0.04443 0.5984 0.79997
0.058989 0.38396 0.92146
0.005398 -0.68047 0.73276
0.0060486 -0.72084 0.69308
0.0053854 -0.75173 0.65945
0.0012062 -0.77556 0.63127
0.0025728 -0.79039 0.61259
0.0004797 -0.78822 0.61539
-0.00075644 -0.75462 0.65617
0.001992 -0.75706 0.65334
-0.0016582 -0.76035 0.64951
-0.0092265 -0.75037 0.66095
-0.0099893 -0.74601 0.66586
-0.0094407 -0.73449 0.67855
-0.012255 0.69679 0.71717
-0.021207 0.68038 0.73255
-0.04443 0.5984 0.79997
-0.058989 0.38396 0.92146
0.016001 -0.68045 0.73262
0.0036093 -0.72312 0.69071
0.011014 -0.75238 0.65863
0.0070917 -0.77519 0.63169
0.0022993 -0.78986 0.61328
0.0040568 -0.78741 0.61642
0.00068244 -0.7534 0.65756
-0.003152 -0.75594 0.65464
-0.013184 -0.75916 0.65077
-0.021881 -0.74896 0.66226
-0.027766 -0.74461 0.66693
-0.031479 -0.73237 0.68018
-0.037032 0.69805 0.7151
-0.043818 0.68075 0.73121
-0.054573 0.59849 0.79927
0.062206 0.38734 0.91984
0.020982 -0.67956 0.73332
0.0051238 -0.72465 0.6891
0.012379 -0.75292 0.658
0.0026967 -0.77519 0.63172
0.007327 -0.78948 0.61374
0.0077577 -0.78662 0.61739
0.0059163 -0.75202 0.65911
-0.0012792 -0.75388 0.65701
-0.01064 -0.75622 0.65423
-0.022231 -0.74504 0.66665
-0.023903 -0.74002 0.67216
-0.043705 -0.72555 0.68678
-0.045636 0.7028 0.70992
0.0070488 0.6848 0.7287
0.10532 0.59205 0.79899
0.12342 0.37322 0.9195
0.028967 -0.68329 0.72957
0.01395 -0.72337 0.69032
0.0026056 -0.75412 0.65673
-0.0018232 -0.77672 0.62985
0.0023926 -0.79149 0.61118
0.0060351 -0.78847 0.61504
0.0053118 -0.75349 0.65744
-0.0034187 -0.75444 0.65636
-0.0017524 -0.75593 0.65465
0.0052797 -0.7429 0.66938
-0.013401 -0.73456 0.67841
-0.021725 -0.71629 0.69746
-0.038641 0.71211 0.701
0.035153 0.6899 0.72305
0.071724 0.60159 0.79558
-0.055545 0.40345 0.91332
0.045337 0.68196 0.72998
-0.003463 0.71255 0.70162
0.0041767 0.74 0.67259
-0.0087295 0.75933 0.65065
-0.00047477 0.76905 0.63919
-0.0082566 0.74796 0.66369
-0.0034116 -0.65829 0.75276
0.0019915 -0.69425 0.71973
0.0055665 -0.68689 0.72674
0.013734 -0.67186 0.74055
0.028063 -0.61184 0.79048
0.060351 0.78703 0.61396
-0.038789 0.7678 0.63951
-0.021705 0.71153 0.70232
-0.042858 0.62561 0.77896
0.11474 0.42866 0.89615
0.032762 0.67787 0.73445
0.020082 0.71446 0.69939
0.012566 0.73981 0.6727
-0.0049344 0.75925 0.65078
-0.00069269 0.76847 0.63988
-0.0048042 0.7469 0.66492
0.00011244 -0.66034 0.75096
0.0046873 -0.69746 0.71661
0.010985 -0.69218 0.72164
0.022672 -0.6802 0.73267
0.038659 -0.62363 0.78076
0.012872 0.78144 0.62385
0.013008 0.76261 0.64672
0.0073874 0.70831 0.70586
-0.055782 0.62029 0.78238
-0.054297 0.42606 0.90306
0.01992 0.67779 0.73499
0.028081 0.71391 0.69968
0.0070596 0.74011 0.67245
-0.001169 0.75952 0.65048
-0.00050627 0.76829 0.6401
0.0009193 0.7463 0.66561
0.0036782 -0.66164 0.74982
0.006484 -0.70023 0.71389
0.01134 -0.6961 0.71785
0.019895 -0.68498 0.72829
0.028943 -0.62912 0.77677
0.017484 0.77724 0.62896
0.006164 0.75963 0.65033
-0.043287 0.70646 0.70642
-0.083837 0.61494 0.78411
-0.05213 0.42026 0.90591
0.011063 0.6787 0.73433
-0.0022609 0.71352 0.70063
0.0023823 0.73966 0.67297
-0.00072257 0.75909 0.65098
0.00051472 0.76759 0.64094
0.0002162 0.74551 0.66649
0.002412 -0.66263 0.74894
0.0032618 -0.70168 0.71248
0.0047114 -0.69769 0.71639
0.0080187 -0.68661 0.72698
0.011521 -0.63121 0.77552
0.0042231 0.7759 0.63084
0.0060531 0.75833 0.65184
-0.033214 0.70563 0.7078
-0.020048 0.61815 0.78581
0.016115 0.41932 0.9077
-0.011063 0.6787 0.73433
0.0022609 0.71352 0.70063
-0.0023823 0.73966 0.67297
0.00072257 0.75909 0.65098
-0.00051472 0.76759 0.64094
-0.0002162 0.74551 0.66649
-0.002412 -0.66263 0.74894
-0.0032618 -0.70168 0.71248
-0.0047114 -0.69769 0.71639
-0.0080187 -0.68661 0.72698
-0.011521 -0.63121 0.77552
-0.0042231 0.7759 0.63084
-0.0060531 0.75833 0.65184
0.033214 0.70563 0.7078
0.020048 0.61815 0.78581
-0.016115 0.41932 0.9077
-0.01992 0.67779 0.73499
-0.028081 0.71391 0.69968
-0.0070596 0.74011 0.67245
0.001169 0.75952 0.65048
0.00050627 0.76829 0.6401
-0.0009193 0.7463 0.66561
-0.0036782 -0.66164 0.74982
-0.006484 -0.70023 0.71389
-0.01134 -0.6961 0.71785
-0.019895 -0.68498 0.72829
-0.028943 -0.62912 0.77677
-0.017484 0.77724 0.62896
-0.006164 0.75963 0.65033
0.043287 0.70646 0.70642
0.083837 0.61494 0.78411
0.05213 0.42026 0.90591
-0.032762 0.67787 0.73445
-0.020082 0.71446 0.69939
-0.012566 0.73981 0.6727
0.0049344 0.75925 0.65078
0.00069269 0.76847 0.63988
0.0048042 0.7469 0.66492
-0.00011244 -0.66034 0.75096
-0.0046873 -0.69746 0.71661
-0.010985 -0.69218 0.72164
-0.022672 -0.6802 0.73267
-0.038659 -0.62363 0.78076
-0.012872 0.78144 0.62385
-0.013008 0.76261 0.64672
-0.0073874 0.70831 0.70586
0.055782 0.62029 0.78238
0.054297 0.42606 0.90306
-0.045337 0.68196 0.72998
0.003463 0.71255 0.70162
-0.0041767 0.74 0.67259
0.0087295 0.75933 0.65065
0.00047477 0.76905 0.63919
0.0082566 0.74796 0.66369
0.0034116 -0.65829 0.75276
-0.0019915 -0.69425 0.71973
-0.0055665 -0.68689 0.72674
-0.013734 -0.67186 0.74055
-0.028063 -0.61184 0.79048
-0.060351 0.78703 0.61396
0.038789 0.7678 0.63951
0.021705 0.71153 0.70232
0.042858 0.62561 0.77896
-0.11474 0.42866 0.89615
0.15679 0.63467 0.75671
0.049791 0.67235 0.73856
0.025989 0.74499 0.66657
-0.031374 0.7923 0.60932
-0.036963 0.81788 0.5742
-0.016715 0.85172 0.52373
0.00029505 0.88946 0.45702
0.016563 0.88781 0.45992
0.026157 0.89009 0.45504
0.030876 0.89366 0.44767
0.031923 0.88 0.4739
0.047247 0.83934 0.54154
-0.0029453 0.80098 0.59868
-0.00355 0.73793 0.67486
-0.0026453 0.66085 0.75051
0.20054 0.45802 0.86603
0.10851 0.61118 0.78402
0.05606 0.67291 0.7376
0.0058563 0.74513 0.6669
-0.029396 0.79152 0.61043
-0.013201 0.81619 0.57764
0.012429 0.84724 0.53107
0.032781 0.88415 0.46605
0.032213 0.88205 0.47005
0.042482 0.88363 0.46626
0.025414 0.88814 0.45888
0.060002 0.87318 0.4837
0.11449 0.82754 0.54961
0.004854 0.7975 0.6033
-0.012025 0.73504 0.67792
-0.014082 0.65538 0.75517
0.034183 0.48031 0.87643
0.060807 0.60857 0.79116
0.037148 0.66241 0.74822
0.057248 0.73717 0.67328
-0.011124 0.78967 0.61343
-0.022303 0.81469 0.57946
0.0073567 0.84533 0.53419
0.021391 0.8829 0.46908
0.026384 0.88014 0.47398
0.036527 0.88132 0.47111
0.041618 0.88478 0.46415
0.048881 0.87142 0.48809
0.065997 0.83051 0.55308
-0.032306 0.79662 0.60361
-0.020917 0.73557 0.67713
-0.055621 0.65081 0.7572
-0.023396 0.47209 0.88124
0.019719 0.6089 0.793
-0.0024917 0.65946 0.75174
0.034561 0.73526 0.6769
-0.010983 0.7885 0.61493
-0.012666 0.81429 0.58032
0.00081071 0.84411 0.53617
0.0039928 0.88202 0.47119
0.0092839 0.87915 0.47645
0.016811 0.88031 0.4741
0.021266 0.88409 0.46683
0.022743 0.87159 0.48972
0.022445 0.83231 0.55386
-0.058906 0.79556 0.603
-0.058859 0.73418 0.6764
-0.018076 0.65236 0.75769
-0.0079351 0.47484 0.88003
-0.019719 0.6089 0.793
0.0024917 0.65946 0.75174
-0.034561 0.73526 0.6769
0.010983 0.7885 0.61493
0.012666 0.81429 0.58032
-0.00081071 0.84411 0.53617
-0.0039928 0.88202 0.47119
-0.0092839 0.87915 0.47645
-0.016811 0.88031 0.4741
-0.021266 0.88409 0.46683
-0.022743 0.87159 0.48972
-0.022445 0.83231 0.55386
0.058906 0.79556 0.603
0.058859 0.73418 0.6764
0.018076 0.65236 0.75769
0.0079351 0.47484 0.88003
-0.060807 0.60857 0.79116
-0.037148 0.66241 0.74822
-0.057248 0.73717 0.67328
0.011124 0.78967 0.61343
0.022303 0.81469 0.57946
-0.0073567 0.84533 0.53419
-0.021391 0.8829 0.46908
-0.026384 0.88014 0.47398
-0.036527 0.88132 0.47111
-0.041618 0.88478 0.46415
-0.048881 0.87142 0.48809
-0.065997 0.83051 0.55308
0.032306 0.79662 0.60361
0.020917 0.73557 0.67713
0.055621 0.65081 0.7572
0.023396 0.47209 0.88124
-0.10851 0.61118 0.78402
-0.05606 0.67291 0.7376
-0.0058563 0.74513 0.6669
0.029396 0.79152 0.61043
0.013201 0.81619 0.57764
-0.012429 0.84724 0.53107
-0.032781 0.88415 0.46605
-0.032213 0.88205 0.47005
-0.042482 0.88363 0.46626
-0.025414 0.88814 0.45888
-0.060002 0.87318 0.4837
-0.11449 0.82754 0.54961
-0.004854 0.7975 0.6033
0.012025 0.73504 0.67792
0.014082 0.65538 0.75517
-0.034183 0.48031 0.87643
-0.15679 0.63467 0.75671
-0.049791 0.67235 0.73856
-0.025989 0.74499 0.66657
0.031374 0.7923 0.60932
0.036963 0.81788 0.5742
0.016715 0.85172 0.52373
-0.00029505 0.88946 0.45702
-0.016563 0.88781 0.45992
-0.026157 0.89009 0.45504
-0.030876 0.89366 0.44767
-0.031923 0.88 0.4739
-0.047247 0.83934 0.54154
0.0029453 0.80098 0.59868
0.00355 0.73793 0.67486
0.0026453 0.66085 0.75051
-0.20054 0.45802 0.86603
-0.0044445 0.91512 0.40317
-0.15945 0.8515 0.49952
0.062671 0.91335 0.40232
0.0041621 0.93608 0.35176
0.071648 0.94834 0.30905
0.099103 0.95262 0.28757
0.09579 0.95053 0.2955
0.089464 0.94536 0.31351
0.18278 0.92207 0.34114
0.18022 0.90814 0.3779
0.21364 0.87756 0.42924
0.18352 0.85226 0.48987
0.022754 0.82772 0.56067
0.045143 0.78004 0.62409
0.011846 0.71707 0.6969
0.12736 0.5943 0.7941
-0.0075688 0.84352 0.53704
-0.14191 0.83838 0.5263
-0.068548 0.90995 0.40902
0.011744 0.93566 0.3527
0.052387 0.94705 0.3168
-0.0033791 0.95462 0.2978
0.0012159 0.95271 0.30387
0.026369 0.94675 0.3209
0.12124 0.9299 0.34725
0.14395 0.91238 0.38319
0.17251 0.88431 0.43386
0.17862 0.8516 0.49282
0.083377 0.82262 0.56244
-0.038368 0.77887 0.62601
-0.001216 0.71323 0.70093
0.1382 0.57694 0.80501
-0.01335 0.82084 0.571
-0.096463 0.82574 0.55575
-0.11282 0.89646 0.42853
-0.23182 0.90357 0.36032
0.087207 0.94315 0.32073
0.084869 0.94912 0.30326
0.024405 0.95079 0.30888
0.016334 0.94542 0.32546
0.10843 0.93002 0.35114
0.1005 0.91686 0.38634
0.10955 0.89352 0.43546
0.1104 0.86398 0.49128
0.078684 0.82539 0.55906
-0.035331 0.7814 0.62303
-0.019953 0.71243 0.70146
0.084786 0.56992 0.81731
0.022919 0.81096 0.58465
-0.01993 0.82374 0.56662
0.018948 0.89756 0.44049
0.18567 0.91115 0.36788
-0.070638 0.94344 0.32393
-0.014851 0.95159 0.30703
0.090799 0.94552 0.31264
0.091735 0.93998 0.32865
0.13641 0.92507 0.35444
0.12804 0.91255 0.38842
0.12656 0.89114 0.43572
0.11174 0.86513 0.48894
0.0090143 0.83154 0.55539
-0.047179 0.78342 0.6197
-0.019967 0.71411 0.69974
0.025769 0.58812 0.80836
-0.022919 0.81096 0.58465
0.01993 0.82374 0.56662
-0.018948 0.89756 0.44049
-0.18567 0.91115 0.36788
0.070638 0.94344 0.32393
0.014851 0.95159 0.30703
-0.090799 0.94552 0.31264
-0.091735 0.93998 0.32865
-0.13641 0.92507 0.35444
-0.12804 0.91255 0.38842
-0.12656 0.89114 0.43572
-0.11174 0.86513 0.48894
-0.0090143 0.83154 0.55539
0.047179 0.78342 0.6197
0.019967 0.71411 0.69974
-0.025769 0.58812 0.80836
0.01335 0.82084 0.571
0.096463 0.82574 0.55575
0.11282 0.89646 0.42853
0.23182 0.90357 0.36032
-0.087207 0.94315 0.32073
-0.084869 0.94912 0.30326
-0.024405 0.95079 0.30888
-0.016334 0.94542 0.32546
-0.10843 0.93002 0.35114
-0.1005 0.91686 0.38634
-0.10955 0.89352 0.43546
-0.1104 0.86398 0.49128
-0.078684 0.82539 0.55906
0.035331 0.7814 0.62303
0.019953 0.71243 0.70146
-0.084786 0.56992 0.81731
0.0075688 0.84352 0.53704
0.14191 0.83838 0.5263
0.068548 0.90995 0.40902
-0.011744 0.93566 0.3527
-0.052387 0.94705 0.3168
0.0033791 0.95462 0.2978
-0.0012159 0.95271 0.30387
-0.026369 0.94675 0.3209
-0.12124 0.9299 0.34725
-0.14395 0.91238 0.38319
-0.17251 0.88431 0.43386
-0.17862 0.8516 0.49282
-0.083377 0.82262 0.56244
0.038368 0.77887 0.62601
0.001216 0.71323 0.70093
-0.1382 0.57694 0.80501
0.0044445 0.91512 0.40317
0.15945 0.8515 0.49952
-0.062671 0.91335 0.40232
-0.0041621 0.93608 0.35176
-0.071648 0.94834 0.30905
-0.099103 0.95262 0.28757
-0.09579 0.95053 0.2955
-0.089464 0.94536 0.31351
-0.18278 0.92207 0.34114
-0.18022 0.90814 0.3779
-0.21364 0.87756 0.42924
-0.18352 0.85226 0.48987
-0.022754 0.82772 0.56067
-0.045143 0.78004 0.62409
-0.011846 0.71707 0.6969
-0.12736 0.5943 0.7941
-0.13169 0.98079 0.14392
-0.57856 0.81075 0.089156
-0.42583 0.90056 0.087536
0.11476 0.99086 0.070848
0.39092 0.91875 0.055492
0.39902 0.91519 0.056681
0.43648 0.897 0.069764
0.42189 0.90153 0.096174
0.31739 0.93838 0.13676
0.25181 0.94898 0.18984
0.20319 0.94583 0.25323
0.14547 0.93551 0.32195
0.16155 0.90926 0.3836
0.10087 0.88426 0.45598
0.017677 0.82416 0.56608
0.023233 0.29757 0.95442
-0.096245 0.97702 0.1902
-0.021933 0.99375 0.10944
-0.32029 0.94337 0.08638
-0.11554 0.99095 0.068355
0.36083 0.93079 0.058633
0.4878 0.87098 0.05879
0.31872 0.9452 0.070863
0.3101 0.94601 0.094399
0.24662 0.95993 0.1331
0.2439 0.95208 0.18457
0.18208 0.95182 0.24677
0.092536 0.94431 0.31577
0.14974 0.9141 0.37684
0.17663 0.87582 0.44915
0.0427 0.82834 0.5586
0.059489 0.25162 0.966
-0.12063 0.9739 0.19226
-0.47211 0.87404 0.11473
0.16656 0.98166 0.092733
-0.55676 0.82782 0.068735
0.55481 0.82993 0.058331
0.4918 0.86862 0.060293
0.3094 0.94821 0.071953
0.30778 0.94662 0.095789
0.23292 0.96334 0.13317
0.21776 0.95881 0.18236
0.16994 0.95495 0.24328
-0.018452 0.95056 0.30999
0.084679 0.92524 0.3698
0.078398 0.89162 0.44595
0.0028844 0.82228 0.56907
0.034834 0.22942 0.9727
0.11246 0.97442 0.19458
-0.34633 0.93058 0.11863
-0.42615 0.8997 0.094567
-0.60751 0.79115 0.070822
0.61343 0.78752 0.059312
0.51584 0.85452 0.060911
0.47648 0.87619 0.07252
0.4159 0.9043 0.096296
0.31306 0.9404 0.1328
0.19175 0.96466 0.18075
0.14066 0.96076 0.23906
0.1145 0.94581 0.30388
0.008947 0.93099 0.36493
0.00028149 0.89244 0.45116
-0.025683 0.82778 0.56047
0.011119 0.21023 0.97759
-0.11246 0.97442 0.19458
0.34633 0.93058 0.11863
0.42615 0.8997 0.094567
0.60751 0.79115 0.070822
-0.61343 0.78752 0.059312
-0.51584 0.85452 0.060911
-0.47648 0.87619 0.07252
-0.4159 0.9043 0.096296
-0.31306 0.9404 0.1328
-0.19175 0.96466 0.18075
-0.14066 0.96076 0.23906
-0.1145 0.94581 0.30388
-0.008947 0.93099 0.36493
-0.00028149 0.89244 0.45116
0.025683 0.82778 0.56047
-0.011119 0.21023 0.97759
0.12063 0.9739 0.19226
0.47211 0.87404 0.11473
-0.16656 0.98166 0.092733
0.55676 0.82782 0.068735
-0.55481 0.82993 0.058331
-0.4918 0.86862 0.060293
-0.3094 0.94821 0.071953
-0.30778 0.94662 0.095789
-0.23292 0.96334 0.13317
-0.21776 0.95881 0.18236
-0.16994 0.95495 0.24328
0.018452 0.95056 0.30999
-0.084679 0.92524 0.3698
-0.078398 0.89162 0.44595
-0.0028844 0.82228 0.56907
-0.034834 0.22942 0.9727
0.096245 0.97702 0.1902
0.021933 0.99375 0.10944
0.32029 0.94337 0.08638
0.11554 0.99095 0.068355
-0.36083 0.93079 0.058633
-0.4878 0.87098 0.05879
-0.31872 0.9452 0.070863
-0.3101 0.94601 0.094399
-0.24662 0.95993 0.1331
-0.2439 0.95208 0.18457
-0.18208 0.95182 0.24677
-0.092536 0.94431 0.31577
-0.14974 0.9141 0.37684
-0.17663 0.87582 0.44915
-0.0427 0.82834 0.5586
-0.059489 0.25162 0.966
0.13169 0.98079 0.14392
0.57856 0.81075 0.089156
0.42583 0.90056 0.087536
-0.11476 0.99086 0.070848
-0.39092 0.91875 0.055492
-0.39902 0.91519 0.056681
-0.43648 0.897 0.069764
-0.42189 0.90153 0.096174
-0.31739 0.93838 0.13676
-0.25181 0.94898 0.18984
-0.20319 0.94583 0.25323
-0.14547 0.93551 0.32195
-0.16155 0.90926 0.3836
-0.10087 0.88426 0.45598
-0.017677 0.82416 0.56608
-0.023233 0.29757 0.95442
